<?xml version="1.0" standalone="no"?>
<!DOCTYPE svg PUBLIC "-//W3C//DTD SVG 20010904//EN"
 "http://www.w3.org/TR/2001/REC-SVG-20010904/DTD/svg10.dtd">
<svg version="1.0" xmlns="http://www.w3.org/2000/svg"
 width="1024.000000pt" height="1024.000000pt" viewBox="0 0 1024.000000 1024.000000"
 preserveAspectRatio="xMidYMid meet">
<metadata>
Created by potrace 1.14, written by Peter Selinger 2001-2017
</metadata>
<g transform="translate(0.000000,1024.000000) scale(0.100000,-0.100000)"
fill="#000000" stroke="none">
<path d="M4918 9915 c-2 -1 -62 -6 -134 -9 -72 -4 -142 -8 -155 -11 -13 -2
-50 -6 -83 -10 -32 -4 -68 -8 -80 -10 -23 -4 -127 -21 -191 -30 -68 -11 -254
-53 -395 -89 -204 -53 -507 -158 -665 -231 -31 -14 -58 -25 -61 -25 -10 0
-289 -142 -387 -197 -275 -154 -613 -393 -797 -563 -9 -8 -36 -33 -60 -54 -61
-53 -242 -230 -299 -292 -58 -64 -198 -223 -219 -249 -62 -80 -150 -198 -199
-267 -60 -84 -233 -355 -233 -364 0 -2 -12 -23 -26 -46 -15 -23 -63 -116 -109
-207 -71 -144 -99 -206 -160 -356 -119 -291 -239 -723 -280 -1010 -3 -22 -10
-65 -15 -95 -5 -30 -12 -82 -15 -115 -4 -33 -8 -67 -10 -75 -10 -39 -20 -287
-19 -500 0 -342 11 -466 70 -835 22 -139 106 -481 149 -610 27 -79 93 -262
127 -350 62 -159 250 -544 271 -553 4 -2 7 -8 7 -13 0 -14 189 -318 232 -374
4 -5 36 -48 69 -95 34 -47 65 -87 68 -90 3 -3 25 -30 48 -60 23 -30 53 -67 65
-81 13 -15 42 -49 64 -75 135 -158 316 -337 520 -514 62 -53 235 -190 303
-238 57 -40 240 -163 263 -177 411 -242 613 -337 1013 -475 172 -59 520 -151
625 -165 14 -2 40 -6 58 -9 94 -17 297 -46 347 -51 292 -26 774 -26 970 -1 17
2 59 7 95 11 36 4 74 9 85 11 11 2 40 7 65 10 25 3 52 7 60 9 8 2 35 7 60 10
25 4 63 10 85 15 22 5 54 11 71 14 161 29 549 147 789 241 163 64 456 202 463
218 2 4 8 7 14 7 13 0 169 89 263 150 39 25 75 47 80 50 48 24 279 190 399
287 150 121 329 286 460 422 33 36 70 74 82 85 41 41 236 278 302 368 38 51
106 149 152 218 46 69 91 137 101 152 11 15 19 30 19 33 0 3 11 22 23 43 178
282 393 797 492 1177 47 182 69 279 79 349 4 21 8 41 10 45 2 3 7 35 11 71 3
35 8 67 10 70 1 3 6 28 9 55 14 114 18 141 22 165 10 65 18 286 18 490 0 310
-11 468 -50 720 -21 137 -24 153 -29 170 -2 8 -6 31 -9 50 -36 229 -182 696
-307 982 -81 186 -210 431 -323 613 -90 145 -265 390 -360 504 -122 145 -262
296 -390 420 -97 94 -104 99 -181 166 -39 33 -79 67 -90 77 -103 89 -376 288
-395 288 -5 0 -10 3 -12 8 -1 4 -28 23 -58 43 -390 251 -828 448 -1278 575
-70 20 -134 37 -142 39 -8 2 -53 12 -100 23 -47 11 -98 23 -115 26 -16 4 -41
9 -55 11 -14 3 -54 10 -90 15 -36 6 -78 12 -95 15 -250 38 -355 46 -667 50
-135 2 -248 2 -250 0z"/>
</g>
</svg>
